<svg id="레이어_1" data-name="레이어 1" xmlns="http://www.w3.org/2000/svg" viewBox="0 0 205 205"><defs><style>.cls-1{fill:#e82e8a;}.cls-2{fill:#fff;}</style></defs><circle class="cls-1" cx="102.5" cy="102.5" r="102.5"/><path class="cls-2" d="M-416.55,1052c-9.89-4.17-24.52-2.71-35.32,13.7-10.8-16.41-25.44-17.87-35.32-13.7-14.09,6-24.38,25-17.21,46.42,10,30,49.34,50.41,51,51.27l.06,0a2.85,2.85,0,0,0,.65.24l.12,0a3.25,3.25,0,0,0,.69.08h0a3.08,3.08,0,0,0,.68-.08l.12,0a2.69,2.69,0,0,0,.65-.24l.06,0c1.67-.86,41-21.28,51-51.27C-392.17,1076.91-402.46,1057.92-416.55,1052Z" transform="translate(554.37 -992.5)"/></svg>