<svg id="레이어_7" data-name="레이어 7" xmlns="http://www.w3.org/2000/svg" viewBox="0 0 177.26 165.49"><defs><style>.cls-1{fill:#e82e8a;}</style></defs><g id="sub_quick04"><path class="cls-1" d="M-309.72-537.33a36,36,0,0,0-30.23-16.5c-12.36,0-23.52,6.29-30.64,17.26-7,10.75-8.57,24.17-4.09,34.21,11.32,25.31,31,57.54,31.24,57.86a4.11,4.11,0,0,0,3.48,2h0a4.09,4.09,0,0,0,3.48-1.94c.88-1.41,21.72-35,31.29-58C-300.81-512.95-302.59-526.63-309.72-537.33ZM-339.95-500a16.27,16.27,0,0,1-16.14-16.36,16.27,16.27,0,0,1,16.14-16.37,16.27,16.27,0,0,1,16.14,16.37A16.27,16.27,0,0,1-339.95-500Z" transform="translate(377.19 605.18)"/><path class="cls-1" d="M-205-592.93a26.7,26.7,0,0,0-22.44-12.25c-9.18,0-17.47,4.67-22.75,12.81-5.17,8-6.36,18-3,25.4,8.4,18.79,23,42.71,23.19,43a3,3,0,0,0,2.58,1.45h0a3,3,0,0,0,2.58-1.43c.66-1.06,16.12-26,23.23-43C-198.44-574.83-199.76-585-205-592.93Zm-22.44,27.7a12.08,12.08,0,0,1-12-12.15,12.09,12.09,0,0,1,12-12.16,12.09,12.09,0,0,1,12,12.16A12.08,12.08,0,0,1-227.49-565.23Z" transform="translate(377.19 605.18)"/><path class="cls-1" d="M-253.19-482.87c-1.85-1.54-5.89-3-7.73-4.22l2-2.42c1.95,1.33,6.09,2.83,8,4.46Zm-13.62-6.78a36.3,36.3,0,0,1-6-4l3.57-1.58a32,32,0,0,0,5.45,3.58ZM-277-498.5a8.57,8.57,0,0,1-.92-5.66l4.34,0,0,.2a7,7,0,0,0,.77,4.62Zm6-10.17-3.72-1.2a26.71,26.71,0,0,1,6-4.49l2.89,1.83A23,23,0,0,0-271-508.67Zm12-7-2.18-2.16c2.49-1,5.24-1.83,8.18-2.64l1.62,2.34C-254.12-517.36-256.68-516.53-259-515.65Zm15.16-4.47-.44-2.62c2.81-.11,5.77-.14,8.8-.09l.06,2.63C-238.31-520.25-241.14-520.22-243.83-520.12Z" transform="translate(377.19 605.18)"/><path class="cls-1" d="M-324.76-439.79c-1.51-.06-3-.13-4.51-.22l.76-3.29c2.83.16,5.74.27,8.61.3l-.5,3.31C-321.85-439.71-323.3-439.74-324.76-439.79Zm13.29,0,.24-3.31c3-.09,5.85-.26,8.7-.49l0,3.29Q-306.89-439.92-311.47-439.77Zm17.94-1.47-.33-3.26c2.93-.39,5.83-.86,8.61-1.4l.67,3.2C-287.47-442.14-290.48-441.65-293.53-441.24Zm17.79-3.47-1.06-3.12c2.89-.76,5.65-1.61,8.21-2.52l1.52,3C-269.78-446.41-272.7-445.51-275.74-444.71Zm17-6.15-2.09-2.73a47,47,0,0,0,6.92-4.08l2.82,2.3A53.25,53.25,0,0,1-258.74-450.86Zm13.9-10.34-3.68-1.48a13.76,13.76,0,0,0,2.8-5.78l4.3.18A17.06,17.06,0,0,1-244.84-461.2Zm-1.34-13.18a16.5,16.5,0,0,0-3.32-5.36l3.66-2a19.19,19.19,0,0,1,3.87,6.25Z" transform="translate(377.19 605.18)"/></g></svg>