<svg id="레이어_1" data-name="레이어 1" xmlns="http://www.w3.org/2000/svg" viewBox="0 0 308.81 359"><defs><style>.cls-1{fill:#fff;}.cls-2{fill:none;stroke:#fff;stroke-miterlimit:10;}</style></defs><path class="cls-1" d="M428.4-99.3v-.08q-3,.07-6.08.08Z" transform="translate(-267.92 458.3)"/><path class="cls-2" d="M487.56-225.87a6.07,6.07,0,0,0-6.16,4.34,7,7,0,0,1-3.61,4.09,18.48,18.48,0,0,1-6,1.72,6.06,6.06,0,0,0-3.57,1.75,5.3,5.3,0,0,0-1.47,3.92,5,5,0,0,0,2.13,4.41,8.76,8.76,0,0,0,5.08,1.47h6.58v34.93h14V-218.8a6.79,6.79,0,0,0-2-5.28A7.16,7.16,0,0,0,487.56-225.87Z" transform="translate(-267.92 458.3)"/><path class="cls-2" d="M340.88-225.87a6.07,6.07,0,0,0-6.16,4.34,7,7,0,0,1-3.61,4.09,18.48,18.48,0,0,1-6,1.72,6.06,6.06,0,0,0-3.57,1.75,5.3,5.3,0,0,0-1.47,3.92,5,5,0,0,0,2.13,4.41,8.74,8.74,0,0,0,5.08,1.47h6.58v34.93h14V-218.8a6.79,6.79,0,0,0-2-5.28A7.16,7.16,0,0,0,340.88-225.87Z" transform="translate(-267.92 458.3)"/><path class="cls-2" d="M380.77-225.87a6.08,6.08,0,0,0-6.16,4.34,6.91,6.91,0,0,1-3.6,4.09,18.47,18.47,0,0,1-6,1.72,6.06,6.06,0,0,0-3.57,1.75A5.34,5.34,0,0,0,360-210a5,5,0,0,0,2.14,4.41,8.7,8.7,0,0,0,5.07,1.47h6.58v34.93h14V-218.8a6.76,6.76,0,0,0-2-5.28A7.13,7.13,0,0,0,380.77-225.87Z" transform="translate(-267.92 458.3)"/><path class="cls-2" d="M522.07-182.4v-.49a4.61,4.61,0,0,1,1.19-3.26,21.26,21.26,0,0,1,3.85-3l8.68-5.53a18,18,0,0,0,6.33-6.55,19.84,19.84,0,0,0,2-9.41,13.32,13.32,0,0,0-1.51-6.44,14.61,14.61,0,0,0-4.06-4.76,18.15,18.15,0,0,0-6-3,26.62,26.62,0,0,0-7.45-1,26,26,0,0,0-4.59.42,22,22,0,0,0-4.55,1.33,20.4,20.4,0,0,0-4.13,2.31,12.39,12.39,0,0,0-3.18,3.36A7.1,7.1,0,0,0,507.4-214a5.23,5.23,0,0,0,2,4,6,6,0,0,0,3.43,1.4,10.79,10.79,0,0,0,3.5-.28,6.07,6.07,0,0,0,1.78-.84,15.09,15.09,0,0,0,1.37-1,15.35,15.35,0,0,1,2.41-1.64,5.79,5.79,0,0,1,2.84-.67,5.43,5.43,0,0,1,3.74,1.22,3.87,3.87,0,0,1,1.37,3,6.29,6.29,0,0,1-.6,2.59,6,6,0,0,1-2.27,2.45l-11,7.28a25.92,25.92,0,0,0-4.13,3.43,14.76,14.76,0,0,0-2.7,3.89,17.28,17.28,0,0,0-1.43,4.83,40.51,40.51,0,0,0-.42,6.19v.77a7.86,7.86,0,0,0,2.34,6.12,9,9,0,0,0,6.34,2.14h28.7v-12.11H523.12A.93.93,0,0,1,522.07-182.4Z" transform="translate(-267.92 458.3)"/><circle class="cls-1" cx="122.14" cy="125.43" r="46.91"/><path class="cls-1" d="M440-260.14a64.4,64.4,0,0,0-44-17.28H376.25a44.09,44.09,0,0,1-44.1-44.09V-426.18A32.12,32.12,0,0,0,300-458.3h0a32.12,32.12,0,0,0-32.11,32.12v273A246.92,246.92,0,0,0,422.32-99.3q3,0,6.08-.08V-229.32A46.74,46.74,0,0,1,440-260.14Zm-92.07,90.9h-14v-34.93H327.3a8.74,8.74,0,0,1-5.08-1.47,5,5,0,0,1-2.13-4.41,5.3,5.3,0,0,1,1.47-3.92,6.06,6.06,0,0,1,3.57-1.75,18.48,18.48,0,0,0,6-1.72,7,7,0,0,0,3.61-4.09,6.07,6.07,0,0,1,6.16-4.34,7.16,7.16,0,0,1,5,1.79,6.79,6.79,0,0,1,2,5.28Zm39.89,0h-14v-34.93h-6.58a8.7,8.7,0,0,1-5.07-1.47A5,5,0,0,1,360-210a5.34,5.34,0,0,1,1.47-3.92,6.06,6.06,0,0,1,3.57-1.75,18.47,18.47,0,0,0,6-1.72,6.91,6.91,0,0,0,3.6-4.09,6.08,6.08,0,0,1,6.16-4.34,7.13,7.13,0,0,1,5,1.79,6.76,6.76,0,0,1,2,5.28Z" transform="translate(-267.92 458.3)"/><circle class="cls-1" cx="487.99" cy="-312.97" r="34.08" transform="translate(322.48 715.94) rotate(-67.5)"/><path class="cls-1" d="M576.72-272.33v-105c0-12.52-10.44-22.67-23.33-22.67h0c-12.89,0-23.33,10.15-23.33,22.67v73.88c0,17.19-14.35,31.12-32,31.12H483.7a47.45,47.45,0,0,0-35.44,15.7,44.73,44.73,0,0,0-11.54,29.95v127a246.87,246.87,0,0,0,140-53.51v-119.1ZM494.56-169.24h-14v-34.93H474a8.76,8.76,0,0,1-5.08-1.47,5,5,0,0,1-2.13-4.41,5.3,5.3,0,0,1,1.47-3.92,6.06,6.06,0,0,1,3.57-1.75,18.48,18.48,0,0,0,6-1.72,7,7,0,0,0,3.61-4.09,6.07,6.07,0,0,1,6.16-4.34,7.16,7.16,0,0,1,5,1.79,6.79,6.79,0,0,1,2,5.28Zm50.12,0H516a9,9,0,0,1-6.34-2.14,7.86,7.86,0,0,1-2.34-6.12v-.77a40.51,40.51,0,0,1,.42-6.19,17.28,17.28,0,0,1,1.43-4.83,14.76,14.76,0,0,1,2.7-3.89,25.92,25.92,0,0,1,4.13-3.43l11-7.28a6,6,0,0,0,2.27-2.45,6.29,6.29,0,0,0,.6-2.59,3.87,3.87,0,0,0-1.37-3,5.43,5.43,0,0,0-3.74-1.22,5.79,5.79,0,0,0-2.84.67,15.35,15.35,0,0,0-2.41,1.64,15.09,15.09,0,0,1-1.37,1,6.07,6.07,0,0,1-1.78.84,10.79,10.79,0,0,1-3.5.28,6,6,0,0,1-3.43-1.4,5.23,5.23,0,0,1-2-4,7.1,7.1,0,0,1,1.23-4.41,12.39,12.39,0,0,1,3.18-3.36,20.4,20.4,0,0,1,4.13-2.31,22,22,0,0,1,4.55-1.33,26,26,0,0,1,4.59-.42,26.62,26.62,0,0,1,7.45,1,18.15,18.15,0,0,1,6,3,14.61,14.61,0,0,1,4.06,4.76,13.32,13.32,0,0,1,1.51,6.44,19.84,19.84,0,0,1-2,9.41,18,18,0,0,1-6.33,6.55l-8.68,5.53a21.26,21.26,0,0,0-3.85,3,4.61,4.61,0,0,0-1.19,3.26v.49a.93.93,0,0,0,1,1.05h21.56Z" transform="translate(-267.92 458.3)"/></svg>