<svg id="menu_icon" xmlns="http://www.w3.org/2000/svg" viewBox="0 0 177.26 165.49"><defs><style>.cls-1{fill:#7f7f7f;}</style></defs><g id="sub_quick04"><path class="cls-1" d="M-384.13-222.15a36,36,0,0,0-30.23-16.5c-12.36,0-23.52,6.29-30.63,17.26-7,10.75-8.58,24.17-4.09,34.21,11.31,25.31,31,57.54,31.23,57.86a4.13,4.13,0,0,0,3.48,2h0a4.07,4.07,0,0,0,3.48-1.94c.89-1.41,21.72-35,31.29-58C-375.22-197.77-377-211.45-384.13-222.15Zm-30.23,37.31A16.28,16.28,0,0,1-430.5-201.2a16.28,16.28,0,0,1,16.14-16.37,16.27,16.27,0,0,1,16.14,16.37A16.27,16.27,0,0,1-414.36-184.84Z" transform="translate(451.6 290)"/><path class="cls-1" d="M-279.46-277.75A26.7,26.7,0,0,0-301.9-290c-9.17,0-17.46,4.67-22.74,12.81-5.18,8-6.37,17.95-3,25.39,8.4,18.8,23,42.72,23.19,43a3,3,0,0,0,2.58,1.45h0a3,3,0,0,0,2.58-1.43c.66-1.06,16.13-26,23.23-43.05C-272.85-259.65-274.17-269.81-279.46-277.75ZM-301.9-250a12.08,12.08,0,0,1-12-12.15,12.09,12.09,0,0,1,12-12.16,12.09,12.09,0,0,1,12,12.16A12.08,12.08,0,0,1-301.9-250Z" transform="translate(451.6 290)"/><path class="cls-1" d="M-327.6-167.69c-1.85-1.54-5.88-3-7.73-4.22l2-2.42c1.95,1.33,6.09,2.83,8,4.46Zm-13.61-6.78a36.41,36.41,0,0,1-6-4l3.58-1.58a32.25,32.25,0,0,0,5.44,3.58Zm-10.18-8.85a8.52,8.52,0,0,1-.93-5.66L-348-189l0,.2a7,7,0,0,0,.77,4.62Zm6-10.17-3.72-1.2a26.71,26.71,0,0,1,6-4.49l2.89,1.83A23,23,0,0,0-345.38-193.49Zm12-7-2.18-2.16c2.49-1,5.24-1.83,8.18-2.64l1.63,2.34C-328.53-202.18-331.09-201.35-333.4-200.47Zm15.16-4.47-.44-2.62c2.82-.11,5.78-.14,8.8-.09l.06,2.63C-312.72-205.07-315.55-205-318.24-204.94Z" transform="translate(451.6 290)"/><path class="cls-1" d="M-399.17-124.61c-1.51-.06-3-.13-4.5-.22l.75-3.3c2.83.17,5.74.28,8.61.31l-.5,3.31C-396.26-124.53-397.71-124.56-399.17-124.61Zm13.3,0,.23-3.31c2.95-.09,5.86-.26,8.7-.49l0,3.29Q-381.3-124.74-385.87-124.59Zm17.94-1.47-.34-3.26c2.93-.39,5.83-.86,8.61-1.4l.67,3.2C-361.88-127-364.89-126.47-367.93-126.06Zm17.78-3.47-1.05-3.12c2.89-.76,5.64-1.61,8.2-2.52l1.52,3C-344.19-131.23-347.11-130.33-350.15-129.53Zm17-6.15-2.09-2.73a47,47,0,0,0,6.92-4.08l2.82,2.3A52.71,52.71,0,0,1-333.15-135.68Zm13.9-10.34-3.67-1.48a14,14,0,0,0,2.8-5.78l4.29.18A17.06,17.06,0,0,1-319.25-146Zm-1.33-13.18a16.71,16.71,0,0,0-3.33-5.36l3.66-2a19.19,19.19,0,0,1,3.87,6.25Z" transform="translate(451.6 290)"/></g></svg>