<svg id="레이어_7" data-name="레이어 7" xmlns="http://www.w3.org/2000/svg" viewBox="0 0 278 292"><defs><style>.cls-1{fill:#e82e8a;}</style></defs><path class="cls-1" d="M-1099-160c-30.7,0-56.31-55.58-62.21-129.45-.69-8.59-1.11-17.43-1.24-26.46a3.58,3.58,0,0,0-.1-.8q-.14-.65-.3-1.29A73.53,73.53,0,0,0-1234-373a73.53,73.53,0,0,0-71.15,55q-.16.64-.3,1.29a3.58,3.58,0,0,0-.1.8c-.13,9-.55,17.87-1.24,26.46C-1312.69-215.58-1338.3-160-1369-160h0a4,4,0,0,0-4,4v8.44a7.55,7.55,0,0,0,7.56,7.56h262.88a7.55,7.55,0,0,0,7.56-7.56V-156a4,4,0,0,0-4-4Z" transform="translate(1373 404)"/><path class="cls-1" d="M-1234-404a29,29,0,0,0-29,29,29,29,0,0,0,29,29,29,29,0,0,0,29-29A29,29,0,0,0-1234-404Zm0,42a13,13,0,0,1-13-13,13,13,0,0,1,13-13,13,13,0,0,1,13,13A13,13,0,0,1-1234-362Z" transform="translate(1373 404)"/><circle class="cls-1" cx="139" cy="260.5" r="31.5"/></svg>