<svg id="menu_icon" xmlns="http://www.w3.org/2000/svg" viewBox="0 0 304.69 265.3"><defs><style>.cls-1{fill:#7f7f7f;}</style></defs><g id="sub_quick02"><path class="cls-1" d="M-441.87-660.64a55.28,55.28,0,0,0-55.28,55.27,55.28,55.28,0,0,0,55.28,55.28,55.28,55.28,0,0,0,55.27-55.28A55.28,55.28,0,0,0-441.87-660.64Zm0,18.28a18.49,18.49,0,0,1,18.49,18.49,18.49,18.49,0,0,1-18.49,18.49,18.49,18.49,0,0,1-18.49-18.49A18.49,18.49,0,0,1-441.87-642.36Zm30.54,74h-61.09v-23.74a47.59,47.59,0,0,1,30.55-11,47.59,47.59,0,0,1,30.54,11Z" transform="translate(594.69 660.64)"/><path class="cls-1" d="M-539.41-505.89a55.27,55.27,0,0,0-55.28,55.27,55.27,55.27,0,0,0,55.28,55.27,55.26,55.26,0,0,0,55.27-55.27A55.26,55.26,0,0,0-539.41-505.89Zm0,18.28a18.49,18.49,0,0,1,18.49,18.49,18.49,18.49,0,0,1-18.49,18.49,18.49,18.49,0,0,1-18.49-18.49A18.49,18.49,0,0,1-539.41-487.61Zm30.55,74H-570v-23.74a47.66,47.66,0,0,1,30.55-11,47.68,47.68,0,0,1,30.55,11Z" transform="translate(594.69 660.64)"/><path class="cls-1" d="M-345.27-506a55.27,55.27,0,0,0-55.28,55.27,55.27,55.27,0,0,0,55.28,55.27A55.27,55.27,0,0,0-290-450.72,55.27,55.27,0,0,0-345.27-506Zm0,18.28a18.49,18.49,0,0,1,18.49,18.49,18.49,18.49,0,0,1-18.49,18.49,18.49,18.49,0,0,1-18.49-18.49A18.48,18.48,0,0,1-345.27-487.71Zm30.54,74h-61.09v-23.74a47.64,47.64,0,0,1,30.55-11,47.63,47.63,0,0,1,30.54,11Z" transform="translate(594.69 660.64)"/><rect class="cls-1" x="125.41" y="208.03" width="53.86" height="12.86"/><rect class="cls-1" x="-408.78" y="-541.04" width="53.86" height="12.86" transform="translate(-4.18 746.13) rotate(54.83)"/><rect class="cls-1" x="-528.83" y="-542.25" width="53.86" height="12.86" transform="translate(-634.32 226.41) rotate(125.17)"/></g></svg>