<svg id="main_quick" xmlns="http://www.w3.org/2000/svg" viewBox="0 0 249.35 242.65"><defs><style>.cls-1{fill:#fff;}</style></defs><g id="_02" data-name="02"><path class="cls-1" d="M45.33-353.93A92.11,92.11,0,0,0,33.76-307.8L51-320.25c-3.78-12-5.74-23.41-5.7-33.68" transform="translate(4.66 399.83)"/><path class="cls-1" d="M68.62-276A172.12,172.12,0,0,1,53.05-304.7L32-289.48c.41,2.12.92,4.21,1.47,6.28a84.48,84.48,0,0,1,32.07,9.46Z" transform="translate(4.66 399.83)"/><path class="cls-1" d="M139.92-269.14,121-295.4,87.56-271.3a167.86,167.86,0,0,0,19.18,20.75c1.52.78,3,1.51,4.36,2.19Z" transform="translate(4.66 399.83)"/><path class="cls-1" d="M65.1-313.39a160.17,160.17,0,0,0,15.35,28.86l33.42-24.1L94.93-334.9Z" transform="translate(4.66 399.83)"/><path class="cls-1" d="M88.77-346.19,66.2-377.5c-8.33,10.73-9.71,28.94-3.93,50.42Z" transform="translate(4.66 399.83)"/><path class="cls-1" d="M156-394.68a92.51,92.51,0,0,0-47.44-3.59c9.77,3.21,20,8.71,30.12,16.08Z" transform="translate(4.66 399.83)"/><path class="cls-1" d="M126.5-373.4C108-385.67,90.2-390.08,77.43-385.6L100-354.29Z" transform="translate(4.66 399.83)"/><path class="cls-1" d="M158.49-340.8A157.46,157.46,0,0,0,136-364.51L106.17-343l18.94,26.27Z" transform="translate(4.66 399.83)"/><path class="cls-1" d="M181-298.75a157.39,157.39,0,0,0-15.38-28.82L132.22-303.5l18.94,26.26Z" transform="translate(4.66 399.83)"/><path class="cls-1" d="M193-307.44l21-15.18a91.67,91.67,0,0,0-12.18-31.13l-24.43,17.62A174.79,174.79,0,0,1,193-307.44" transform="translate(4.66 399.83)"/><path class="cls-1" d="M170.36-349.36,194.79-367a91,91,0,0,0-25.7-21.41l-21,15.18a174.63,174.63,0,0,1,22.31,23.84" transform="translate(4.66 399.83)"/><path class="cls-1" d="M167.06-235.86l-18-25L123.5-242.46c1.59.73,2.76,1.24,3.44,1.54,9.79.86,27.74,2.63,40.12,5.06" transform="translate(4.66 399.83)"/><path class="cls-1" d="M186.76-288.08,160.27-269l21.3,29.55c1.66-2.15,3.83-4.88,6.23-7.73,3.59-10.64,3.3-24.86-1-40.93" transform="translate(4.66 399.83)"/><path class="cls-1" d="M214.46-289.76a93,93,0,0,0,1.81-19.59L199-296.87a118.13,118.13,0,0,1,5.52,27.6l.16-.3c2.22-4.8,6-12.9,9.83-20.19" transform="translate(4.66 399.83)"/><path class="cls-1" d="M3.79-220.35c32.41,21.83,76,48.65,92,56.83,25.08,12.83,38.28,3.43,51.06-4.12C174.67-184.09,189-188,204.94-209.17c14.78-19.64,30.72-57.06,30.72-57.06s9.54-34,9-37.19c-.83-5-10-4.43-17.56,2.31-4.16,3.7-18,33.72-18,33.72a85.85,85.85,0,0,1-11.89,17.1,227.73,227.73,0,0,0-14.9,18.13s7.48,8.31,7.48,12.47S183-207.08,166-199.09c-14.5,6.84-39.29,5.11-50.26,4.35-27.72-1.94-43.24-13.58-46-23.56-2-7.26,30.39,13.19,50.37,17.58s49.58-3.92,57.18-10.65c5.56-4.93,5-12.48-.83-16.64s-50.76-8-50.76-8A450.62,450.62,0,0,1,70-265.49C40.16-284,14-280.66,3.26-272.89c-11.95,8.65-9.22,46,.53,52.54" transform="translate(4.66 399.83)"/></g></svg>