<svg id="레이어_1" data-name="레이어 1" xmlns="http://www.w3.org/2000/svg" viewBox="0 0 625.92 237.33"><defs><style>.cls-1{fill:#f7a81b;}.cls-2{fill:#17458f;}</style></defs><path class="cls-1" d="M778.75,171.44v-.33l-.25-.15a37.29,37.29,0,0,0-18.12-4.91c-.12-.85-.93-6.91-1.06-7.77a37.1,37.1,0,0,0,16.24-9.43l.22-.2-.06-.33a35.12,35.12,0,0,0-2-7.46l-.12-.3-.31-.07a37.14,37.14,0,0,0-18.73,0c-.3-.8-2.6-6.39-2.93-7.16a38.17,38.17,0,0,0,13.19-13.24l.15-.25-.08-.29a38.51,38.51,0,0,0-3.83-6.65l-.18-.26h-.35a37.77,37.77,0,0,0-18.11,4.76c-.51-.7-4.26-5.57-4.76-6.25a37.59,37.59,0,0,0,9.38-16.22l.08-.32-.22-.24a35,35,0,0,0-5.45-5.5l-.23-.18h-.33A37.79,37.79,0,0,0,724.68,98c-.7-.54-5.56-4.34-6.26-4.92a36.65,36.65,0,0,0,4.93-17.57v-.78l-.24-.2a32.12,32.12,0,0,0-6.7-3.86l-.28-.11-.27.14a37.32,37.32,0,0,0-13.27,13.12c-.83-.32-6.75-2.8-7.52-3.19a39.39,39.39,0,0,0,1.26-9.47A31.69,31.69,0,0,0,695.07,62l-.08-.3-.31-.11a33.1,33.1,0,0,0-7.38-2l-.35-.05-.2.21a37.3,37.3,0,0,0-9.39,16.22c-.87-.15-7-.91-7.92-1a37.11,37.11,0,0,0-4.85-18.11l-.15-.16h-.32a35.58,35.58,0,0,0-7.72,0h-.34l-.15.29a37.23,37.23,0,0,0-4.84,18c-.89.12-7.1.87-8,1.06a37.42,37.42,0,0,0-9.39-16.24l-.23-.24h-.35a36.42,36.42,0,0,0-7.4,2l-.3.13-.12.3a35.41,35.41,0,0,0-1.22,9.33,40.67,40.67,0,0,0,1.27,9.38c-.78.33-6.75,2.9-7.55,3.19a38,38,0,0,0-13.22-13.23l-.27-.17-.33.12a38.76,38.76,0,0,0-6.65,3.88l-.28.17v.85a37.25,37.25,0,0,0,4.86,17.69c-.67.55-5.16,4.06-5.84,4.61a37.71,37.71,0,0,0-16.23-9.4l-.29-.06-.23.21A33.64,33.64,0,0,0,573.8,94l-.2.26.08.31A37.83,37.83,0,0,0,583,110.77c-.49.68-4.4,5.77-4.94,6.47A37.16,37.16,0,0,0,560,112.35h-.29l-.2.27a36.37,36.37,0,0,0-3.86,6.68l-.13.28.16.29a37.92,37.92,0,0,0,13.23,13.29c-.3.79-2.57,6.31-2.91,7.11a36.82,36.82,0,0,0-18.76,0l-.31.07-.1.28a33.77,33.77,0,0,0-2,7.46v.31l.23.26a36.78,36.78,0,0,0,16.22,9.3c-.13.87-.93,7-1.06,7.82A37.49,37.49,0,0,0,542,170.63l-.28.16v.32a34.36,34.36,0,0,0,0,7.72v.31l.28.15a37.15,37.15,0,0,0,18.12,4.85c.12.88,1,7.16,1.06,8A37.91,37.91,0,0,0,545,201.6l-.23.27v.28a37.07,37.07,0,0,0,2,7.46l.13.28.28.11A37.53,37.53,0,0,0,566,210c.32.78,2.75,6.39,3.09,7.14a37.67,37.67,0,0,0-13.23,13.2l-.14.29.11.3a37.31,37.31,0,0,0,3.88,6.67l.19.26h.3a37.45,37.45,0,0,0,18.11-4.8c.53.66,4.36,5.65,4.86,6.33a37.08,37.08,0,0,0-9.38,16.19l-.07.3.19.26a40.1,40.1,0,0,0,5.43,5.47l.26.23.31-.11a37.41,37.41,0,0,0,16.23-9.32c.71.55,5.66,4.36,6.4,4.9a38.4,38.4,0,0,0-4.83,17.79v.65l.29.22a38.57,38.57,0,0,0,6.64,3.86l.28.11.31-.15A37.57,37.57,0,0,0,618.5,266.5l7,2.85a38,38,0,0,0-1.24,9.37,33.51,33.51,0,0,0,1.27,9.34l.06.3.32.12a36.53,36.53,0,0,0,7.46,2.06h.34l.22-.26a36.39,36.39,0,0,0,9.3-16.19c.89.15,7.15,1.06,8,1.13a37,37,0,0,0,4.89,18l.13.28h.35a34.18,34.18,0,0,0,7.7,0h.31l.16-.28a37.94,37.94,0,0,0,4.9-18.11c.87-.11,6.73-.93,7.61-1.06a36.68,36.68,0,0,0,9.36,16.23l.24.22h.28a39.85,39.85,0,0,0,7.46-2l.28-.14.09-.29a33.82,33.82,0,0,0,1.22-9.33,39.22,39.22,0,0,0-1.22-9.47c.81-.31,6.49-2.77,7.29-3.13a38.17,38.17,0,0,0,13.23,13.26l.26.12.31-.11a34.21,34.21,0,0,0,6.7-3.89l.24-.15v-.86a38.53,38.53,0,0,0-4.79-17.61c.68-.54,5.33-4.18,6-4.72a38.47,38.47,0,0,0,16.27,9.36l.3.09.23-.22A39.13,39.13,0,0,0,746.6,256l.21-.28-.1-.27a37.46,37.46,0,0,0-9.31-16.25c.53-.69,4.27-5.67,4.82-6.39a37.18,37.18,0,0,0,18.11,4.78h.32l.19-.23a30.56,30.56,0,0,0,3.87-6.72l.13-.26-.15-.29a38.8,38.8,0,0,0-13.11-13.3c.32-.78,2.57-6.27,2.9-7.06a36.15,36.15,0,0,0,18.7,0l.28-.1.12-.27a36.48,36.48,0,0,0,2-7.46v-.32l-.23-.25A37,37,0,0,0,759.24,192c.14-.85,1-6.73,1.07-7.6a37.24,37.24,0,0,0,18.11-4.87l.26-.18V179a30.94,30.94,0,0,0,.21-3.85,29,29,0,0,0-.14-3.73ZM660.27,263.38a89,89,0,1,1,88.94-89v0A89.05,89.05,0,0,1,660.27,263.38Z" transform="translate(-152.98 -56.42)"/><path class="cls-1" d="M660.27,96.17a78.27,78.27,0,1,0,78.25,78.27v0a78.32,78.32,0,0,0-78.25-78.25Zm9.81,12.58a3.11,3.11,0,0,1,2.74-.21c15.73,3.8,27.26,10.44,38.54,22.29a3.69,3.69,0,0,1,1.23,2.33v.28c-.23,1.06-1.44,1.65-2.51,2.13l-32.92,16a3.57,3.57,0,0,1-3.47.07,3.64,3.64,0,0,1-1.68-3l-2.65-36.47C669.25,110.36,669.49,109.28,670.08,108.75ZM609,131.12c11.26-11.82,22.79-18.5,38.52-22.27a3,3,0,0,1,2.7.22c.67.51.9,1.59.78,3.34l-2.61,36.44a3.33,3.33,0,0,1-5.11,3l-32.9-16c-1.07-.53-2.34-1.06-2.55-2.13a3.3,3.3,0,0,1,1.2-2.61Zm-7.81,67.59c-1.43,1-2.48,1.33-3.29,1.07s-1.19-1.3-1.48-2.27c-4.66-15.53-4.66-28.85,0-44.51.39-1.35,1-2.13,1.67-2.35,1.06-.38,2.13.4,3.2,1.07l30.23,20.57a3.62,3.62,0,0,1,1.81,3,3.77,3.77,0,0,1-1.77,2.95Zm49.65,42.83a3.08,3.08,0,0,1-2.74.15c-15.71-3.75-27.27-10.4-38.51-22.26a3.51,3.51,0,0,1-1.22-2.26,1.93,1.93,0,0,1,0-.34c.15-1.06,1.42-1.64,2.49-2.13l32.92-16a3.36,3.36,0,0,1,4.63,1.05,3.32,3.32,0,0,1,.51,1.92l2.67,36.54c.17,1.69-.09,2.76-.72,3.31ZM660.17,196a21.38,21.38,0,0,1-11.71-39.23,4.32,4.32,0,1,1,4.76,7.2h0a12.78,12.78,0,1,0,14,0,4.32,4.32,0,0,1,4.76-7.2A21.38,21.38,0,0,1,660.27,196Zm51.23,23c-11.22,11.8-22.7,18.45-38.52,22.24a3.18,3.18,0,0,1-2.83-.24c-.83-.69-.72-2.13-.64-3.28L672,201.24a3.89,3.89,0,0,1,1.73-3.09,3.77,3.77,0,0,1,3.43.1l32.93,16c1.54.75,2.37,1.5,2.52,2.32s-.47,1.67-1.21,2.43Zm11.1-68.55c.88.3,1.24,1.28,1.5,2.25,4.64,15.54,4.64,28.85,0,44.52-.37,1.34-.91,2.13-1.63,2.38-1.06.32-2.13-.43-3.11-1.13L689,177.94a3.69,3.69,0,0,1-1.84-3,3.73,3.73,0,0,1,1.84-3l30.28-20.53c1.4-1,2.47-1.31,3.27-1Z" transform="translate(-152.98 -56.42)"/><path class="cls-2" d="M337,163.61l.45,8.52a2.57,2.57,0,0,1-2.07,2.64,76.51,76.51,0,0,1-11.59,1.46c-15.51,0-20.24-5.93-20.24-25.37V121.09h-6a2.56,2.56,0,0,1-2.55-2.57v-8.79a2.55,2.55,0,0,1,2.55-2.54h6V96.73a2.56,2.56,0,0,1,1.94-2.48l10.29-2.5a2.54,2.54,0,0,1,3.11,1.81,2.57,2.57,0,0,1,.09.67v13h15.68a2.56,2.56,0,0,1,2.55,2.54v8.79a2.57,2.57,0,0,1-2.55,2.57H318.93v27.54c0,9.52.35,12.78,7,12.78,2.46,0,6.32-.16,8.39-.27A2.55,2.55,0,0,1,337,163.6Zm-48.57-23.08c0,24.51-9.32,35.49-30.21,35.49s-30.38-11-30.38-35.49c0-24.18,9.37-35,30.38-35C278.83,105.57,288.43,116.67,288.43,140.53Zm-15.65,0c0-15.06-4.09-20.92-14.56-20.92-10.87,0-14.68,5.46-14.68,20.92,0,14,2.34,21.6,14.72,21.6C270.4,162.13,272.78,154.21,272.78,140.53Zm245.41-32.35a2.45,2.45,0,0,0-2-1h-10a2.54,2.54,0,0,0-2.46,1.89l-13.39,50.48h-1.06l-13.37-50.48a2.54,2.54,0,0,0-2.47-1.89h-10a2.54,2.54,0,0,0-2.56,2.52,2.51,2.51,0,0,0,.08.67L475.73,167c.74,2.8,3.33,7.55,8.47,7.55h2.85c-.24.95-.5,2-.78,2.82l-.13.44c-.8,2.61-2,6.55-9.29,6.55l-12.79-.77a2.49,2.49,0,0,0-1.95.71,2.58,2.58,0,0,0-.77,1.95l.32,6.67a2.53,2.53,0,0,0,1.94,2.36,96.65,96.65,0,0,0,16.85,2.24h.81c9.58,0,16.14-6.22,19.43-18.47,3.81-14.36,8.6-32.82,12.09-46.31l3.91-15,1.92-7.34A2.46,2.46,0,0,0,518.19,108.18ZM218.47,171a2.68,2.68,0,0,1-.19,2.43,2.62,2.62,0,0,1-2.13,1.15h-12a2.51,2.51,0,0,1-2.33-1.52l-15.3-34.41c-7.61,0-14.21-.46-17.78-.72V172a2.55,2.55,0,0,1-2.54,2.56H155.57A2.57,2.57,0,0,1,153,172h0V85.7a2.55,2.55,0,0,1,2.28-2.54A265.8,265.8,0,0,1,184,81.45h2.14C212.43,81.45,218,97,218,110c0,10.85-5.18,18.71-15.84,24ZM186.09,96.26h-5.63a63,63,0,0,0-11.72.83v26.63c3,.21,8.8.51,16.56.43,10-.1,16.28-5.43,16.28-13.85C201.61,103.48,197.53,96.26,186.09,96.26Zm213.72,32.12V173a2.58,2.58,0,0,1-2.58,2.56l-.28,0a19.15,19.15,0,0,1-10.19-4.26c-.11.06-11.66,4.71-22,4.71-12.44,0-19.57-7.85-19.57-21.57,0-13.41,6.54-19.34,22.55-20.54l16.74-1.33v-4.07c0-5.14-3.07-8.09-8.39-8.09-7.33,0-17.79.85-23.35,1.35a2.5,2.5,0,0,1-1.94-.62,2.61,2.61,0,0,1-.87-1.81l-.32-8.52a2.53,2.53,0,0,1,2.13-2.63c5-.79,17.42-2.6,25.17-2.6,15.61,0,22.9,7.23,22.9,22.78Zm-30.25,17c-6,.58-8.89,3.34-8.89,8.65,0,3.29.88,8.8,6.87,8.8,7.11,0,16.77-2.69,16.88-2.71V144.58Zm80.19-38.69c-6.78.4-13.49,4.26-17.65,7.25v-4.25a2.55,2.55,0,0,0-2.55-2.54H419.26a2.56,2.56,0,0,0-2.58,2.53h0V172a2.56,2.56,0,0,0,2.56,2.56h10.29A2.56,2.56,0,0,0,432.1,172h0V129c2.31-1.94,9.49-7.32,18-8.06a2.58,2.58,0,0,0,2.32-2.56v-9.12a2.57,2.57,0,0,0-2.59-2.55h-.13Z" transform="translate(-152.98 -56.42)"/><path class="cls-2" d="M274.8,261.54a34,34,0,0,1-7.85-.91,19.37,19.37,0,0,1-5.91-2.22l1.44-6.52a15.08,15.08,0,0,0,4.86,1.76,27,27,0,0,0,5.83.72q8.41,0,8.42-7a5.28,5.28,0,0,0-2.09-4.69,11.64,11.64,0,0,0-6.2-1.57l-4.89-.13v-6.45l4.37-.14a10.12,10.12,0,0,0,5.81-1.69,5.27,5.27,0,0,0,2.08-4.5,4.93,4.93,0,0,0-1.82-4.3,9.45,9.45,0,0,0-5.48-1.31,24.19,24.19,0,0,0-9.52,2.09l-1-6.72a22.28,22.28,0,0,1,5.84-1.83,38.18,38.18,0,0,1,7.2-.71q6.46,0,10.18,2.87t3.71,8.28q0,7.69-7.89,10.56,9.39,1.77,9.39,10.89a12.11,12.11,0,0,1-4.37,9.92Q282.56,261.55,274.8,261.54Z" transform="translate(-152.98 -56.42)"/><path class="cls-2" d="M314.26,261.67q-8.28,0-12.65-5.28t-4.37-14.61v-3.06a33.32,33.32,0,0,1,1.6-10.89,17.2,17.2,0,0,1,4.43-7.24,18.31,18.31,0,0,1,6.36-3.85,23.39,23.39,0,0,1,7.76-1.24,21,21,0,0,1,10.5,2.48l-1.57,6.78a19,19,0,0,0-8.6-1.95,10.52,10.52,0,0,0-8,3.06c-2,2-3.09,5.54-3.39,10.5a15.73,15.73,0,0,1,10.3-3.65,13.23,13.23,0,0,1,9.65,3.55q3.66,3.55,3.66,9.82a15.73,15.73,0,0,1-4.11,11.18Q321.76,261.68,314.26,261.67Zm-.2-6.65a6.66,6.66,0,0,0,5.25-2.15,8.8,8.8,0,0,0,1.93-6.06c0-2.66-.68-4.6-2-5.84a7.71,7.71,0,0,0-5.42-1.86,8.36,8.36,0,0,0-4.11,1.17,11,11,0,0,0-3.26,2.68v.39Q306.43,255,314.06,255Z" transform="translate(-152.98 -56.42)"/><path class="cls-2" d="M352.54,261.67q-8.28,0-12.65-5.28t-4.37-14.61v-3.06a33.32,33.32,0,0,1,1.6-10.89,17.2,17.2,0,0,1,4.43-7.24,18.31,18.31,0,0,1,6.36-3.85,23.39,23.39,0,0,1,7.76-1.24,21,21,0,0,1,10.5,2.48l-1.57,6.78a19,19,0,0,0-8.6-1.95,10.52,10.52,0,0,0-8,3.06c-2,2-3.09,5.54-3.39,10.5a15.73,15.73,0,0,1,10.3-3.65,13.23,13.23,0,0,1,9.65,3.55q3.66,3.55,3.66,9.82a15.73,15.73,0,0,1-4.11,11.18Q360,261.68,352.54,261.67Zm-.2-6.65a6.66,6.66,0,0,0,5.25-2.15,8.75,8.75,0,0,0,1.93-6.06c0-2.66-.68-4.6-2-5.84a7.71,7.71,0,0,0-5.42-1.86,8.39,8.39,0,0,0-4.11,1.17,11,11,0,0,0-3.26,2.68v.39Q344.71,255,352.34,255Z" transform="translate(-152.98 -56.42)"/><path class="cls-2" d="M374.06,260.89v-5.35l7.76-8.28q3.85-4.11,5.87-6.49a34.9,34.9,0,0,0,3.81-5.54,11.72,11.72,0,0,0,1.8-5.64c0-2.57-.71-4.38-2.12-5.45s-3.55-1.59-6.43-1.59a19.87,19.87,0,0,0-9,2.67l-1.18-6.59a25.85,25.85,0,0,1,12.91-3.19q7.63,0,11.51,3.29t3.88,9.55a16.2,16.2,0,0,1-1.14,5.84,24.4,24.4,0,0,1-3.45,6c-1.55,2-2.79,3.58-3.72,4.66s-2.27,2.53-4,4.31l-4.63,4.69H403v7.11Z" transform="translate(-152.98 -56.42)"/><path class="cls-2" d="M444,248.37l-4.83,6.78a34.42,34.42,0,0,1-7.89-6.75,24.42,24.42,0,0,1-5.41-8.57,26.07,26.07,0,0,1-5.31,9.58,28.54,28.54,0,0,1-8.19,7.18l-5.09-6.65a26.69,26.69,0,0,0,10.6-10.76q3.36-6.52,3.43-16.05H410.12V216h31.24v7.17H430.21Q430.41,241.07,444,248.37Zm12.2,20.35h-8.81V210.61h8.81Z" transform="translate(-152.98 -56.42)"/><path class="cls-2" d="M510.42,213.48a110.28,110.28,0,0,1-1.95,25.3h8.28v6.79H494.58v23.15H486V245.57H464.25v-6.79h36.19A70.2,70.2,0,0,0,502,220.39H470.45v-6.91Z" transform="translate(-152.98 -56.42)"/></svg>