<svg id="club" xmlns="http://www.w3.org/2000/svg" viewBox="0 0 237.37 237.33"><defs><style>.cls-1{fill:#feecb7;}</style></defs><g id="normal"><path class="cls-1" d="M168.23-237.64V-238l-.26-.15A37.14,37.14,0,0,0,149.86-243c-.13-.86-.94-6.91-1.07-7.77A37.14,37.14,0,0,0,165-260.23l.22-.2-.06-.33a35.1,35.1,0,0,0-2-7.46l-.13-.3-.31-.07a37.14,37.14,0,0,0-18.73,0c-.3-.8-2.6-6.4-2.93-7.16A38.2,38.2,0,0,0,154.3-289l.15-.24-.07-.29a39,39,0,0,0-3.84-6.66l-.18-.25H150a37.77,37.77,0,0,0-18.11,4.76c-.51-.7-4.26-5.57-4.77-6.25a37.49,37.49,0,0,0,9.38-16.22l.09-.32-.23-.24a34.51,34.51,0,0,0-5.44-5.5l-.24-.18h-.33A37.76,37.76,0,0,0,114.16-311c-.71-.54-5.56-4.34-6.27-4.92a36.7,36.7,0,0,0,4.94-17.57v-.79l-.25-.19a32.17,32.17,0,0,0-6.7-3.87l-.28-.1-.26.14a37.26,37.26,0,0,0-13.28,13.12c-.83-.32-6.74-2.8-7.52-3.19a39.42,39.42,0,0,0,1.27-9.48,31.92,31.92,0,0,0-1.27-9.22l-.07-.3-.31-.12a33.86,33.86,0,0,0-7.39-2l-.35-.05-.2.21a37.52,37.52,0,0,0-9.39,16.21c-.87-.15-7-.9-7.91-1a37,37,0,0,0-4.86-18.11l-.15-.16h-.32a34.27,34.27,0,0,0-7.71,0h-.34l-.15.29a37.35,37.35,0,0,0-4.85,18.05c-.88.11-7.1.87-8,1.06a37.46,37.46,0,0,0-9.39-16.25l-.23-.23h-.34a36.51,36.51,0,0,0-7.41,2l-.3.13-.11.3a35.42,35.42,0,0,0-1.23,9.33,41.3,41.3,0,0,0,1.27,9.38c-.78.33-6.74,2.89-7.54,3.19A38.06,38.06,0,0,0-5.95-338.45l-.28-.17-.33.12a38.07,38.07,0,0,0-6.65,3.87l-.28.17v.86a37.47,37.47,0,0,0,4.86,17.68c-.67.56-5.15,4.07-5.84,4.62a37.63,37.63,0,0,0-16.22-9.4l-.3-.06-.22.21a32.48,32.48,0,0,0-5.51,5.42l-.2.26.07.31a37.84,37.84,0,0,0,9.34,16.24c-.49.68-4.4,5.78-4.94,6.48a37,37,0,0,0-18.11-4.89h-.3l-.19.27a36.42,36.42,0,0,0-3.87,6.68l-.13.27.16.3a38,38,0,0,0,13.24,13.29c-.3.79-2.57,6.3-2.91,7.1a37,37,0,0,0-18.76,0l-.31.08-.11.27a34.61,34.61,0,0,0-2,7.46v.32l.22.26a37,37,0,0,0,16.22,9.3c-.12.87-.92,7-1.06,7.82a37.48,37.48,0,0,0-18.11,4.86l-.29.16v.32a35.58,35.58,0,0,0,0,7.72v.31l.29.15a37.11,37.11,0,0,0,18.11,4.85c.13.88,1,7.16,1.06,8a37.91,37.91,0,0,0-16.19,9.44l-.22.26v.29a37,37,0,0,0,2,7.46l.13.28.29.1a37.3,37.3,0,0,0,18.77,0c.32.79,2.75,6.39,3.09,7.15a37.67,37.67,0,0,0-13.23,13.2l-.14.29.1.3a37.31,37.31,0,0,0,3.88,6.67l.19.25h.3A37.3,37.3,0,0,0-32.23-176c.54.66,4.36,5.64,4.86,6.33a37.16,37.16,0,0,0-9.37,16.19l-.08.3.19.25a39.68,39.68,0,0,0,5.44,5.48l.25.22.31-.1a37.44,37.44,0,0,0,16.24-9.32c.7.55,5.66,4.35,6.39,4.9A38.37,38.37,0,0,0-12.83-134v.65l.29.22a39.63,39.63,0,0,0,6.64,3.86l.29.11.31-.15A37.71,37.71,0,0,0,8-142.58l7,2.85a38.5,38.5,0,0,0-1.24,9.37A33.76,33.76,0,0,0,15-121l.07.31.32.12a36.26,36.26,0,0,0,7.45,2.06h.34l.23-.26A36.47,36.47,0,0,0,32.71-135c.89.15,7.16,1.06,8,1.13a37.15,37.15,0,0,0,4.89,18l.13.28h.35a34.18,34.18,0,0,0,7.7,0h.31l.16-.28a38,38,0,0,0,4.9-18.11L66.79-135a36.7,36.7,0,0,0,9.37,16.23l.23.22h.29a39.22,39.22,0,0,0,7.45-2l.28-.14.1-.28a34.21,34.21,0,0,0,1.21-9.34,39.84,39.84,0,0,0-1.21-9.47c.81-.31,6.49-2.77,7.29-3.12A38.06,38.06,0,0,0,105-129.65l.25.13.31-.11a33.64,33.64,0,0,0,6.7-3.89l.25-.15v-.87a38.57,38.57,0,0,0-4.8-17.61l6-4.72a38.49,38.49,0,0,0,16.27,9.37l.3.08.24-.21a39.61,39.61,0,0,0,5.48-5.43l.22-.28-.11-.28a37.56,37.56,0,0,0-9.3-16.24l4.81-6.4a37.12,37.12,0,0,0,18.12,4.79h.31l.2-.24a30.85,30.85,0,0,0,3.86-6.71l.13-.27-.15-.28a38.86,38.86,0,0,0-13.1-13.3c.32-.79,2.57-6.27,2.9-7.06a36.33,36.33,0,0,0,18.69,0l.28-.1.13-.28a36.19,36.19,0,0,0,2-7.45v-.32l-.23-.25a36.85,36.85,0,0,0-16.14-9.35c.14-.85,1-6.73,1.06-7.6a37.18,37.18,0,0,0,18.12-4.88l.25-.17v-.33a27.61,27.61,0,0,0,.21-3.85,29,29,0,0,0-.13-3.73ZM49.74-145.7a89,89,0,0,1-89-88.94,89,89,0,0,1,88.94-89,89,89,0,0,1,89,88.94v0A89.05,89.05,0,0,1,49.74-145.7Z" transform="translate(68.99 352.67)"/><path class="cls-1" d="M49.74-312.91a78.26,78.26,0,0,0-78.27,78.25,78.26,78.26,0,0,0,78.25,78.27A78.26,78.26,0,0,0,128-234.64v0a78.33,78.33,0,0,0-78.26-78.25Zm9.82,12.58a3.09,3.09,0,0,1,2.73-.21c15.73,3.8,27.27,10.44,38.54,22.28a3.68,3.68,0,0,1,1.24,2.34v.27c-.24,1.07-1.44,1.66-2.52,2.13l-32.92,16a3.55,3.55,0,0,1-3.46.07,3.65,3.65,0,0,1-1.69-3.05L58.83-297C58.73-298.72,59-299.8,59.56-300.33ZM-1.56-278C9.7-289.78,21.22-296.46,37-300.23a3,3,0,0,1,2.71.22c.67.51.89,1.59.77,3.33l-2.61,36.45a3.5,3.5,0,0,1-1.65,3.05,3.53,3.53,0,0,1-3.46-.08l-32.9-16c-1.07-.53-2.33-1.06-2.55-2.13A3.3,3.3,0,0,1-1.53-278Zm-7.81,67.59c-1.43,1-2.49,1.33-3.3,1.07s-1.19-1.3-1.48-2.27c-4.65-15.54-4.65-28.85,0-44.52.39-1.34,1-2.13,1.67-2.34,1.07-.38,2.13.39,3.2,1.07L20.9-236.79a3.62,3.62,0,0,1,1.82,3,3.82,3.82,0,0,1-1.77,3Zm49.64,42.83a3.09,3.09,0,0,1-2.73.15C21.82-171.14,10.26-177.79-1-189.65a3.45,3.45,0,0,1-1.21-2.27.91.91,0,0,1,0-.33c.15-1.06,1.41-1.64,2.48-2.13l32.92-16a3.35,3.35,0,0,1,4.63,1.05,3.4,3.4,0,0,1,.52,1.91L41-170.85c.17,1.69-.09,2.75-.72,3.31Zm9.38-45.56a21.37,21.37,0,0,1-21.32-21.44,21.36,21.36,0,0,1,9.6-17.78,4.31,4.31,0,0,1,6,1.22,4.31,4.31,0,0,1-1.22,6h0A12.78,12.78,0,0,0,39-227.42a12.79,12.79,0,0,0,17.7,3.69,12.78,12.78,0,0,0,3.69-17.7,12.72,12.72,0,0,0-3.69-3.69,4.32,4.32,0,0,1-1.22-6,4.31,4.31,0,0,1,6-1.22,21.37,21.37,0,0,1,6.1,29.61,21.36,21.36,0,0,1-17.82,9.62Zm51.22,23c-11.22,11.8-22.7,18.45-38.51,22.24a3.2,3.2,0,0,1-2.84-.24c-.83-.7-.72-2.13-.63-3.29l2.62-36.48a3.85,3.85,0,0,1,1.72-3.09,3.77,3.77,0,0,1,3.43.1l32.93,16c1.55.76,2.37,1.51,2.53,2.33s-.48,1.67-1.22,2.42ZM112-258.62c.89.3,1.24,1.28,1.51,2.25,4.63,15.54,4.63,28.85,0,44.52-.38,1.34-.92,2.13-1.63,2.38-1.07.31-2.14-.43-3.12-1.13L78.46-231.14a3.71,3.71,0,0,1-1.85-3,3.75,3.75,0,0,1,1.85-3l30.27-20.53c1.4-1,2.48-1.31,3.28-1Z" transform="translate(68.99 352.67)"/></g></svg>