<svg id="club" xmlns="http://www.w3.org/2000/svg" viewBox="0 0 237.37 237.33"><defs><style>.cls-1{fill:#fdc011;}</style></defs><g id="앰불럼"><path class="cls-1" d="M422.78-532.64V-533l-.25-.15A37.18,37.18,0,0,0,404.41-538c-.12-.86-.93-6.91-1.06-7.77a37.19,37.19,0,0,0,16.24-9.43l.22-.2-.07-.33a34.51,34.51,0,0,0-2-7.46l-.12-.3-.31-.07a37.14,37.14,0,0,0-18.73,0c-.3-.8-2.6-6.4-2.93-7.16A38.37,38.37,0,0,0,408.86-584l.15-.24-.08-.29a39,39,0,0,0-3.83-6.66l-.19-.25h-.34a37.77,37.77,0,0,0-18.11,4.76c-.51-.7-4.26-5.57-4.76-6.25a37.59,37.59,0,0,0,9.38-16.22l.08-.32-.22-.24a34.57,34.57,0,0,0-5.45-5.5l-.23-.18h-.33A37.79,37.79,0,0,0,368.71-606c-.7-.54-5.56-4.34-6.26-4.92a36.68,36.68,0,0,0,4.93-17.57v-.79l-.24-.19a32,32,0,0,0-6.71-3.87l-.27-.1-.27.14a37.32,37.32,0,0,0-13.27,13.12c-.83-.32-6.75-2.8-7.52-3.19a39.41,39.41,0,0,0,1.26-9.48,31.91,31.91,0,0,0-1.26-9.22l-.08-.3-.31-.12a33.62,33.62,0,0,0-7.38-2l-.35-.05-.21.21a37.4,37.4,0,0,0-9.38,16.21c-.87-.15-7-.9-7.92-1a37,37,0,0,0-4.86-18.11l-.14-.16h-.32a34.36,34.36,0,0,0-7.72,0h-.34l-.15.29a37.23,37.23,0,0,0-4.84,18c-.89.11-7.1.87-8,1.06a37.34,37.34,0,0,0-9.38-16.25l-.24-.23h-.34a36.42,36.42,0,0,0-7.4,2l-.3.13-.12.3a35.41,35.41,0,0,0-1.22,9.33,40.75,40.75,0,0,0,1.27,9.38c-.78.33-6.75,2.89-7.55,3.19a38,38,0,0,0-13.22-13.23l-.28-.17-.33.12a38,38,0,0,0-6.64,3.87l-.28.17v.86a37.24,37.24,0,0,0,4.86,17.68c-.67.56-5.16,4.07-5.84,4.62a37.61,37.61,0,0,0-16.23-9.4l-.29-.06-.23.21a32.85,32.85,0,0,0-5.51,5.42l-.2.26.08.31a37.74,37.74,0,0,0,9.34,16.24c-.49.68-4.4,5.78-4.94,6.48A37.05,37.05,0,0,0,204-591.73h-.29l-.2.27a35.81,35.81,0,0,0-3.86,6.68l-.13.27.16.3a38,38,0,0,0,13.23,13.29c-.3.79-2.57,6.3-2.91,7.1a37,37,0,0,0-18.76,0l-.31.08-.1.27a34.07,34.07,0,0,0-2,7.46v.32l.22.26a37,37,0,0,0,16.23,9.3c-.13.87-.93,7-1.06,7.82a37.49,37.49,0,0,0-18.12,4.86l-.28.16v.32a34.36,34.36,0,0,0,0,7.72v.31l.28.15a37.15,37.15,0,0,0,18.12,4.85c.12.88,1,7.16,1.06,8a37.91,37.91,0,0,0-16.19,9.44l-.23.26v.29a37.07,37.07,0,0,0,2,7.46l.12.28.29.1a37.3,37.3,0,0,0,18.77,0c.32.79,2.75,6.39,3.09,7.15a37.67,37.67,0,0,0-13.23,13.2l-.14.29.11.3a36.15,36.15,0,0,0,3.88,6.67l.19.25h.3A37.33,37.33,0,0,0,222.33-471c.53.66,4.36,5.64,4.86,6.33a37.08,37.08,0,0,0-9.38,16.19l-.07.3.19.25a40.17,40.17,0,0,0,5.43,5.48l.26.22.31-.1a37.41,37.41,0,0,0,16.23-9.32c.71.55,5.66,4.35,6.4,4.9A38.25,38.25,0,0,0,241.73-429v.65l.29.22a39.54,39.54,0,0,0,6.63,3.86l.29.11.31-.15a37.65,37.65,0,0,0,13.28-13.29l7,2.85a38,38,0,0,0-1.24,9.37,33.39,33.39,0,0,0,1.27,9.33l.06.31.32.12a36.53,36.53,0,0,0,7.46,2.06h.34l.22-.26A36.28,36.28,0,0,0,287.26-430c.9.15,7.16,1.06,8,1.13a37,37,0,0,0,4.89,18l.13.28h.35a34.18,34.18,0,0,0,7.7,0h.31l.16-.28a38.08,38.08,0,0,0,4.9-18.11l7.61-1.06a36.68,36.68,0,0,0,9.36,16.23l.24.22h.28a39.12,39.12,0,0,0,7.46-2l.28-.14.09-.28a33.84,33.84,0,0,0,1.22-9.34,39.35,39.35,0,0,0-1.22-9.47c.81-.31,6.49-2.77,7.29-3.12a38.15,38.15,0,0,0,13.23,13.25l.26.13.31-.11a34.21,34.21,0,0,0,6.7-3.89l.24-.15v-.87a38.56,38.56,0,0,0-4.79-17.61l6-4.72a38.43,38.43,0,0,0,16.27,9.37l.3.08.23-.21a40.25,40.25,0,0,0,5.49-5.43l.21-.28-.11-.28a37.36,37.36,0,0,0-9.3-16.24l4.82-6.4a37.08,37.08,0,0,0,18.11,4.79h.32l.19-.24a30.49,30.49,0,0,0,3.87-6.71l.13-.27-.15-.28a38.8,38.8,0,0,0-13.11-13.3c.32-.79,2.57-6.27,2.9-7.06a36.37,36.37,0,0,0,18.7,0l.28-.1.12-.28a36.21,36.21,0,0,0,2-7.45v-.32l-.24-.25a36.8,36.8,0,0,0-16.14-9.35c.14-.85,1-6.73,1.07-7.6a37.14,37.14,0,0,0,18.11-4.88l.26-.17v-.33a31,31,0,0,0,.21-3.85,29,29,0,0,0-.14-3.73ZM304.3-440.7a89,89,0,0,1-89-88.94,89,89,0,0,1,88.94-89,89,89,0,0,1,89,88.94v0A89.06,89.06,0,0,1,304.3-440.7Z" transform="translate(-185.56 647.67)"/><path class="cls-1" d="M304.3-607.91A78.26,78.26,0,0,0,226-529.66a78.26,78.26,0,0,0,78.25,78.27,78.26,78.26,0,0,0,78.27-78.25v0a78.32,78.32,0,0,0-78.25-78.25Zm9.81,12.58a3.11,3.11,0,0,1,2.74-.21c15.73,3.8,27.26,10.44,38.54,22.28a3.71,3.71,0,0,1,1.23,2.34v.27c-.23,1.07-1.44,1.66-2.51,2.13l-32.92,16a3.57,3.57,0,0,1-3.47.07,3.64,3.64,0,0,1-1.68-3L313.39-592C313.28-593.72,313.52-594.8,314.11-595.33ZM253-573c11.26-11.82,22.79-18.5,38.51-22.27a3,3,0,0,1,2.71.22c.67.51.9,1.59.78,3.33l-2.61,36.45a3.54,3.54,0,0,1-1.65,3.05,3.55,3.55,0,0,1-3.47-.08l-32.89-16c-1.07-.53-2.34-1.06-2.55-2.13A3.29,3.29,0,0,1,253-573Zm-7.81,67.59c-1.43,1-2.48,1.33-3.29,1.07s-1.19-1.3-1.48-2.27c-4.66-15.54-4.66-28.85,0-44.52.39-1.34.95-2.13,1.67-2.34,1.06-.38,2.13.39,3.19,1.07l30.24,20.57a3.61,3.61,0,0,1,1.81,3,3.77,3.77,0,0,1-1.77,3Zm49.65,42.83a3.11,3.11,0,0,1-2.74.15c-15.71-3.75-27.27-10.4-38.51-22.26a3.47,3.47,0,0,1-1.22-2.27,1.82,1.82,0,0,1,0-.33c.15-1.06,1.42-1.64,2.48-2.13l32.93-16a3.34,3.34,0,0,1,4.62,1.05,3.25,3.25,0,0,1,.52,1.91l2.66,36.55c.17,1.69-.08,2.75-.71,3.31Zm9.37-45.56a21.38,21.38,0,0,1-21.32-21.44,21.38,21.38,0,0,1,9.6-17.78,4.32,4.32,0,0,1,6,1.22,4.32,4.32,0,0,1-1.22,6h0a12.78,12.78,0,0,0-3.69,17.7,12.79,12.79,0,0,0,17.7,3.69,12.79,12.79,0,0,0,3.69-17.7,12.84,12.84,0,0,0-3.69-3.69,4.31,4.31,0,0,1-1.22-6,4.31,4.31,0,0,1,6-1.22,21.37,21.37,0,0,1,6.09,29.61,21.35,21.35,0,0,1-17.81,9.62Zm51.23,23c-11.22,11.8-22.71,18.45-38.52,22.24a3.18,3.18,0,0,1-2.83-.24c-.83-.7-.72-2.13-.64-3.29l2.62-36.48a3.89,3.89,0,0,1,1.73-3.09,3.77,3.77,0,0,1,3.43.1l32.93,16c1.54.76,2.36,1.51,2.52,2.33s-.48,1.67-1.21,2.42Zm11.1-68.55c.88.3,1.23,1.28,1.5,2.25,4.64,15.54,4.64,28.85,0,44.52-.37,1.34-.92,2.13-1.63,2.38-1.06.31-2.13-.43-3.11-1.13L333-526.14a3.7,3.7,0,0,1-1.84-3,3.72,3.72,0,0,1,1.84-3l30.28-20.53c1.4-1,2.47-1.31,3.27-1Z" transform="translate(-185.56 647.67)"/></g></svg>