<svg id="sub_main_quick" xmlns="http://www.w3.org/2000/svg" viewBox="0 0 249.35 310.19"><defs><style>.cls-1{fill:#3a3a3a;}.cls-2{fill:#42545a;}.cls-3{fill:#842e8c;}.cls-4{fill:#00a4ab;}.cls-5{fill:#00408e;}.cls-6{fill:#006cb9;}.cls-7{fill:#f5a900;}.cls-8{fill:#e4006c;}.cls-9{fill:#ec710d;}</style></defs><path class="cls-1" d="M-287.54,24.92V80.34h-7.61V54.82h-25.74V80.34h-7.61V24.92h7.61V48.06h25.74V24.92Z" transform="translate(347.99 229)"/><path class="cls-1" d="M-254.1,81.19a26.38,26.38,0,0,1-9.11-1.5,18.82,18.82,0,0,1-7.11-4.58A21,21,0,0,1-275,67.5a31.21,31.21,0,0,1-1.65-10.68V48.44A31,31,0,0,1-275,37.84a21,21,0,0,1,4.65-7.61,19,19,0,0,1,7.15-4.61,25.78,25.78,0,0,1,9.07-1.54A25.86,25.86,0,0,1-245,25.62a19.09,19.09,0,0,1,7.14,4.61,21,21,0,0,1,4.65,7.61,31,31,0,0,1,1.66,10.6v8.38a31.2,31.2,0,0,1-1.66,10.68,21,21,0,0,1-4.65,7.61A18.78,18.78,0,0,1-245,79.69,26.55,26.55,0,0,1-254.1,81.19Zm0-50.19a16.65,16.65,0,0,0-6,1,12,12,0,0,0-4.69,3.23A15.35,15.35,0,0,0-267.82,41a27.37,27.37,0,0,0-1.12,8.34V56a27.46,27.46,0,0,0,1.12,8.34A15.31,15.31,0,0,0-264.75,70a11.88,11.88,0,0,0,4.69,3.23,16.66,16.66,0,0,0,6,1,16.64,16.64,0,0,0,5.95-1A11.88,11.88,0,0,0-243.46,70a15.46,15.46,0,0,0,3.08-5.68A27.8,27.8,0,0,0-239.27,56V49.29A27.71,27.71,0,0,0-240.38,41a15.51,15.51,0,0,0-3.08-5.69A12,12,0,0,0-248.15,32,16.64,16.64,0,0,0-254.1,31Z" transform="translate(347.99 229)"/><path class="cls-1" d="M-210.6,40.37q-.39-.84-.69-1.65c-.21-.54-.41-1.09-.62-1.65s-.43-1.2-.69-1.92-.54-1.54-.85-2.46V80.34h-7.22V24.92h11.22l15.37,36.28,15-36.28h11.14V80.34h-7.3V32.69c-.25,1-.5,1.88-.73,2.57s-.43,1.32-.61,1.89-.37,1.1-.58,1.61-.43,1.05-.69,1.61l-13.22,30.75h-6.46Z" transform="translate(347.99 229)"/><path class="cls-1" d="M-120.83,24.92v6.54h-26.9V48.67h25.28v6.54h-25.28v18.6h27.44v6.53h-35V24.92Z" transform="translate(347.99 229)"/><path class="cls-2" d="M-298-183.1A92,92,0,0,0-309.57-137l17.27-12.46c-3.78-12-5.75-23.4-5.7-33.68" transform="translate(347.99 229)"/><path class="cls-3" d="M-274.71-105.16a172.43,172.43,0,0,1-15.58-28.7l-21.09,15.21c.41,2.12.91,4.21,1.47,6.29a84.12,84.12,0,0,1,32.07,9.46Z" transform="translate(347.99 229)"/><path class="cls-4" d="M-203.41-98.3l-18.94-26.27-33.42,24.1a168.68,168.68,0,0,0,19.18,20.76l4.36,2.19Z" transform="translate(347.99 229)"/><path class="cls-5" d="M-278.24-142.55a160.23,160.23,0,0,0,15.36,28.86l33.42-24.1-18.94-26.28Z" transform="translate(347.99 229)"/><path class="cls-6" d="M-254.56-175.36l-22.57-31.3c-8.33,10.72-9.71,28.93-3.93,50.41Z" transform="translate(347.99 229)"/><path class="cls-7" d="M-187.32-223.85a92.4,92.4,0,0,0-47.44-3.58c9.77,3.2,20,8.71,30.12,16.07Z" transform="translate(347.99 229)"/><path class="cls-3" d="M-216.83-202.57c-18.55-12.27-36.3-16.68-49.07-12.2l22.58,31.31Z" transform="translate(347.99 229)"/><path class="cls-8" d="M-184.84-170a156.9,156.9,0,0,0-22.5-23.7l-29.83,21.5,18.95,26.27Z" transform="translate(347.99 229)"/><path class="cls-9" d="M-162.35-127.91a157.47,157.47,0,0,0-15.38-28.83l-33.38,24.07,18.94,26.26Z" transform="translate(347.99 229)"/><path class="cls-3" d="M-150.29-136.61l21-15.17a91.64,91.64,0,0,0-12.18-31.14l-24.43,17.62a176,176,0,0,1,15.57,28.69" transform="translate(347.99 229)"/><path class="cls-6" d="M-173-178.53l24.43-17.61a91.18,91.18,0,0,0-25.7-21.41l-21,15.18A175.81,175.81,0,0,1-173-178.53" transform="translate(347.99 229)"/><path class="cls-9" d="M-176.27-65l-18-25-25.54,18.41c1.6.72,2.77,1.24,3.45,1.53,9.79.86,27.74,2.63,40.12,5.07" transform="translate(347.99 229)"/><path class="cls-6" d="M-156.57-117.24l-26.5,19.1,21.31,29.55c1.66-2.15,3.83-4.88,6.23-7.73,3.59-10.63,3.3-24.85-1-40.92" transform="translate(347.99 229)"/><path class="cls-8" d="M-128.87-118.93a93.62,93.62,0,0,0,1.81-19.59L-144.38-126a118.55,118.55,0,0,1,5.52,27.6l.16-.31c2.22-4.8,6-12.9,9.83-20.19" transform="translate(347.99 229)"/><path class="cls-5" d="M-339.54-49.51c32.4,21.82,76,48.64,92,56.82,25.09,12.83,38.29,3.43,51.06-4.12,27.85-16.45,42.2-20.39,58.12-41.53C-123.61-58-107.67-95.4-107.67-95.4s9.54-34,9-37.19c-.83-5-10-4.43-17.56,2.31-4.16,3.7-18,33.73-18,33.73a85.93,85.93,0,0,1-11.89,17.09A227.73,227.73,0,0,0-161-61.33s7.48,8.31,7.48,12.47-6.8,12.62-23.75,20.61c-14.5,6.83-39.29,5.11-50.26,4.34-27.72-1.94-43.24-13.58-46-23.56-2-7.26,30.39,13.19,50.37,17.58s49.58-3.92,57.18-10.65c5.56-4.93,5-12.48-.84-16.63s-50.75-8-50.75-8a449.62,449.62,0,0,1-55.71-29.44c-29.85-18.48-56-15.18-66.75-7.41-11.95,8.66-9.22,46,.53,52.55" transform="translate(347.99 229)"/></svg>