<svg xmlns="http://www.w3.org/2000/svg" viewBox="0 0 152 200"><defs><style>.cls-1{fill:#fff;}</style></defs><g id="sub_main_quick"><path class="cls-1" d="M391.12-308.07a118.49,118.49,0,0,0-76-27.43,118.53,118.53,0,0,0-76,27.43V-249h152Z" transform="translate(-239.13 449)"/><path class="cls-1" d="M271-385a44,44,0,0,0,44,44,44,44,0,0,0,44-44,43.86,43.86,0,0,0-1.39-11H272.39A43.86,43.86,0,0,0,271-385Z" transform="translate(-239.13 449)"/><polygon class="cls-1" points="100.34 22.43 97.87 25.26 91.39 17.82 75.87 0 60.35 17.83 53.87 25.26 51.41 22.43 31.88 0 31.88 48 33.26 48 118.49 48 119.88 48 119.88 0 100.34 22.43"/></g></svg>