<svg xmlns="http://www.w3.org/2000/svg" viewBox="0 0 758.04 660.04"><defs><style>.cls-1{fill:#fff;}</style></defs><g id="sub_main_quick"><path class="cls-1" d="M202.67-739.56A137.52,137.52,0,0,0,65.15-602,137.52,137.52,0,0,0,202.67-464.52,137.52,137.52,0,0,0,340.19-602,137.52,137.52,0,0,0,202.67-739.56Zm0,45.49a46,46,0,0,1,46,46,46,46,0,0,1-46,46,46,46,0,0,1-46-46A46,46,0,0,1,202.67-694.07Zm76,184.07h-152v-59.07a118.49,118.49,0,0,1,76-27.43,118.53,118.53,0,0,1,76,27.43Z" transform="translate(177.52 739.56)"/><path class="cls-1" d="M-40-354.56A137.52,137.52,0,0,0-177.52-217,137.52,137.52,0,0,0-40-79.52,137.52,137.52,0,0,0,97.52-217,137.52,137.52,0,0,0-40-354.56Zm0,45.49a46,46,0,0,1,46,46,46,46,0,0,1-46,46,46,46,0,0,1-46-46A46,46,0,0,1-40-309.07ZM36-125H-116v-59.07A118.49,118.49,0,0,1-40-211.5a118.49,118.49,0,0,1,76,27.43Z" transform="translate(177.52 739.56)"/><path class="cls-1" d="M443-354.81A137.52,137.52,0,0,0,305.48-217.29,137.52,137.52,0,0,0,443-79.77,137.52,137.52,0,0,0,580.52-217.29,137.52,137.52,0,0,0,443-354.81Zm0,45.49a46,46,0,0,1,46,46,46,46,0,0,1-46,46,46,46,0,0,1-46-46A46,46,0,0,1,443-309.32Zm76,184.07H367v-59.07a118.49,118.49,0,0,1,76-27.43,118.49,118.49,0,0,1,76,27.43Z" transform="translate(177.52 739.56)"/><rect class="cls-1" x="312.02" y="517.56" width="134" height="32"/><rect class="cls-1" x="285" y="-442" width="134" height="32" transform="translate(-21.47 271.24) rotate(54.83)"/><rect class="cls-1" x="-13.67" y="-445" width="134" height="32" transform="translate(-89.09 19.83) rotate(125.17)"/></g></svg>