<svg xmlns="http://www.w3.org/2000/svg" viewBox="0 0 81.96 76.52"><defs><style>.cls-1{fill:#fff;}</style></defs><g id="sub_main_quick"><path class="cls-1" d="M209.76,87.18a16.59,16.59,0,0,0-28.14.35c-3.22,5-4,11.17-1.89,15.81C185,115.05,194.08,130,194.17,130.1a1.9,1.9,0,0,0,1.61.9h0a1.92,1.92,0,0,0,1.61-.89c.4-.66,10-16.19,14.46-26.81C213.88,98.45,213.06,92.12,209.76,87.18Zm-14,17.25a7.57,7.57,0,1,1,7.46-7.57A7.52,7.52,0,0,1,195.79,104.43Z" transform="translate(-178.57 -55.81)"/><path class="cls-1" d="M258.16,61.47a12.32,12.32,0,0,0-20.89.26c-2.4,3.69-3,8.29-1.41,11.74a217.59,217.59,0,0,0,10.72,19.86,1.43,1.43,0,0,0,1.2.67h0a1.42,1.42,0,0,0,1.2-.66c.3-.49,7.45-12,10.73-19.9A13.17,13.17,0,0,0,258.16,61.47Zm-10.38,12.8a5.62,5.62,0,1,1,5.54-5.61A5.59,5.59,0,0,1,247.78,74.27Z" transform="translate(-178.57 -55.81)"/><path class="cls-1" d="M235.9,112.36c-.85-.72-2.72-1.38-3.57-2l.93-1.12c.9.62,2.82,1.31,3.72,2.07Zm-6.3-3.14a17.17,17.17,0,0,1-2.78-1.83l1.65-.73a15.72,15.72,0,0,0,2.52,1.66Zm-4.7-4.09a4,4,0,0,1-.43-2.62l2,0,0,.09a3.21,3.21,0,0,0,.35,2.14Zm2.78-4.71L226,99.87a12.41,12.41,0,0,1,2.79-2.07l1.34.84A11.08,11.08,0,0,0,227.68,100.42Zm5.54-3.22-1-1c1.15-.44,2.42-.85,3.78-1.22l.75,1.08C235.47,96.41,234.29,96.79,233.22,97.2Zm7-2.07L240,93.92c1.31,0,2.67-.06,4.07,0l0,1.21C242.78,95.07,241.47,95.09,240.23,95.13Z" transform="translate(-178.57 -55.81)"/><path class="cls-1" d="M202.81,132.27c-.7,0-1.4-.06-2.08-.1l.34-1.52c1.32.07,2.66.12,4,.14l-.24,1.53C204.16,132.31,203.48,132.3,202.81,132.27Zm6.15,0,.11-1.53c1.36,0,2.7-.12,4-.22v1.52C211.75,132.16,210.36,132.24,209,132.28Zm8.29-.68-.16-1.5c1.36-.19,2.7-.4,4-.65l.31,1.48C220.05,131.19,218.66,131.41,217.25,131.6Zm8.23-1.6-.49-1.44c1.33-.36,2.61-.75,3.79-1.17l.7,1.37C228.23,129.21,226.88,129.63,225.48,130Zm7.85-2.84-1-1.27a22.71,22.71,0,0,0,3.2-1.88l1.3,1.06A24.87,24.87,0,0,1,233.33,127.16Zm6.43-4.79-1.7-.68a6.53,6.53,0,0,0,1.3-2.68l2,.09A7.8,7.8,0,0,1,239.76,122.37Zm-.62-6.09a7.44,7.44,0,0,0-1.54-2.48l1.7-.94a8.93,8.93,0,0,1,1.79,2.89Z" transform="translate(-178.57 -55.81)"/></g></svg>