<svg xmlns="http://www.w3.org/2000/svg" viewBox="0 0 42.62 31.75"><defs><style>.cls-1{fill:#fff;}</style></defs><g id="sub_main_quick"><g id="sub_quick05"><path class="cls-1" d="M40.4-37.83,37-43.69a.75.75,0,0,1,.13-.93L58.23-65a.77.77,0,0,1,1.2.17L70-46.65a.78.78,0,0,1-.46,1.13L41.27-37.47A.77.77,0,0,1,40.4-37.83Z" transform="translate(-34.29 67.61)"/><rect class="cls-1" x="71.48" y="-63.25" width="2" height="6" transform="translate(-50.23 -25.3) rotate(60)"/><rect class="cls-1" x="66.75" y="-67.45" width="2" height="6" transform="translate(-48.67 47.87) rotate(15)"/><rect class="cls-1" x="72.75" y="-57.06" width="2" height="6" transform="translate(6.34 -71.68) rotate(105)"/><path class="cls-1" d="M45.17-40.06a.75.75,0,0,1,.16-.94.74.74,0,0,1,1.05.07l3.06,3.47,7-2L57-43.93a.74.74,0,0,1,.83-.65.75.75,0,0,1,.66.83l-.6,5a.75.75,0,0,1-.54.63l-7.93,2.27a.75.75,0,0,1-.77-.23l-3.36-3.83A.47.47,0,0,1,45.17-40.06Z" transform="translate(-34.29 67.61)"/><path class="cls-1" d="M36.93-36.84l-2.5-4.33a1,1,0,0,1,.36-1.37,1,1,0,0,1,1.37.37l2.5,4.33a1,1,0,0,1-.37,1.36A1,1,0,0,1,36.93-36.84Z" transform="translate(-34.29 67.61)"/></g></g></svg>